<svg width="600" height="400" viewBox="0 0 600 400" fill="none" xmlns="http://www.w3.org/2000/svg">
  <defs>
    <linearGradient id="heroGradient" x1="0%" y1="0%" x2="100%" y2="100%">
      <stop offset="0%" style="stop-color:#667eea;stop-opacity:0.1" />
      <stop offset="100%" style="stop-color:#764ba2;stop-opacity:0.05" />
    </linearGradient>
    <linearGradient id="accentGradient" x1="0%" y1="0%" x2="100%" y2="100%">
      <stop offset="0%" style="stop-color:#667eea;stop-opacity:0.8" />
      <stop offset="100%" style="stop-color:#764ba2;stop-opacity:0.6" />
    </linearGradient>
  </defs>
  
  <!-- Background -->
  <rect width="600" height="400" fill="url(#heroGradient)"/>
  
  <!-- Floating geometric shapes -->
  <circle cx="100" cy="80" r="20" fill="url(#accentGradient)" opacity="0.3"/>
  <circle cx="500" cy="120" r="15" fill="url(#accentGradient)" opacity="0.2"/>
  <circle cx="80" cy="320" r="25" fill="url(#accentGradient)" opacity="0.25"/>
  <circle cx="520" cy="350" r="18" fill="url(#accentGradient)" opacity="0.3"/>
  
  <!-- Abstract lines -->
  <path d="M 50 150 Q 200 100 350 150 Q 500 200 550 180" 
        stroke="#667eea" stroke-width="2" fill="none" opacity="0.4" stroke-linecap="round"/>
  <path d="M 50 250 Q 150 200 250 250 Q 400 300 550 250" 
        stroke="#764ba2" stroke-width="1.5" fill="none" opacity="0.3" stroke-linecap="round"/>
  
  <!-- Central composition - abstract blog representation -->
  <g transform="translate(200, 120)">
    <!-- Book/Document shapes -->
    <rect x="0" y="0" width="80" height="100" rx="8" fill="#f8f9fa" stroke="#667eea" stroke-width="2"/>
    <rect x="10" y="10" width="60" height="4" fill="#667eea" opacity="0.6"/>
    <rect x="10" y="20" width="50" height="4" fill="#667eea" opacity="0.4"/>
    <rect x="10" y="30" width="55" height="4" fill="#667eea" opacity="0.4"/>
    
    <rect x="100" y="20" width="80" height="100" rx="8" fill="#f8f9fa" stroke="#764ba2" stroke-width="2"/>
    <rect x="110" y="30" width="60" height="4" fill="#764ba2" opacity="0.6"/>
    <rect x="110" y="40" width="50" height="4" fill="#764ba2" opacity="0.4"/>
    <rect x="110" y="50" width="55" height="4" fill="#764ba2" opacity="0.4"/>
    
    <rect x="50" y="40" width="80" height="100" rx="8" fill="#f8f9fa" stroke="#667eea" stroke-width="2"/>
    <rect x="60" y="50" width="60" height="4" fill="#667eea" opacity="0.6"/>
    <rect x="60" y="60" width="50" height="4" fill="#667eea" opacity="0.4"/>
    <rect x="60" y="70" width="55" height="4" fill="#667eea" opacity="0.4"/>
  </g>
  
  <!-- Decorative elements -->
  <g transform="translate(50, 50)">
    <circle cx="0" cy="0" r="3" fill="#667eea" opacity="0.6"/>
    <circle cx="0" cy="0" r="6" fill="none" stroke="#667eea" stroke-width="1" opacity="0.3"/>
  </g>
  
  <g transform="translate(550, 80)">
    <circle cx="0" cy="0" r="2" fill="#764ba2" opacity="0.7"/>
    <circle cx="0" cy="0" r="5" fill="none" stroke="#764ba2" stroke-width="1" opacity="0.4"/>
  </g>
</svg> 