<svg width="600" height="400" viewBox="0 0 600 400" fill="none" xmlns="http://www.w3.org/2000/svg">
  <defs>
    <linearGradient id="contactGradient" x1="0%" y1="0%" x2="100%" y2="100%">
      <stop offset="0%" style="stop-color:#4299e1;stop-opacity:0.1" />
      <stop offset="100%" style="stop-color:#667eea;stop-opacity:0.05" />
    </linearGradient>
    <linearGradient id="contactAccent" x1="0%" y1="0%" x2="100%" y2="100%">
      <stop offset="0%" style="stop-color:#4299e1;stop-opacity:0.8" />
      <stop offset="100%" style="stop-color:#667eea;stop-opacity:0.6" />
    </linearGradient>
  </defs>
  
  <!-- Background -->
  <rect width="600" height="400" fill="url(#contactGradient)"/>
  
  <!-- Floating elements -->
  <circle cx="100" cy="120" r="30" fill="url(#contactAccent)" opacity="0.2"/>
  <circle cx="500" cy="100" r="25" fill="url(#contactAccent)" opacity="0.15"/>
  <circle cx="80" cy="300" r="35" fill="url(#contactAccent)" opacity="0.25"/>
  <circle cx="520" cy="320" r="28" fill="url(#contactAccent)" opacity="0.2"/>
  
  <!-- Central composition - communication theme -->
  <g transform="translate(200, 120)">
    <!-- Envelope -->
    <rect x="0" y="0" width="120" height="80" rx="8" fill="url(#contactAccent)" opacity="0.3"/>
    <path d="M 0 0 L 60 40 L 120 0" stroke="#4299e1" stroke-width="2" fill="none"/>
    
    <!-- Message lines -->
    <rect x="20" y="20" width="80" height="3" fill="#f8f9fa" opacity="0.8"/>
    <rect x="20" y="30" width="60" height="3" fill="#f8f9fa" opacity="0.6"/>
    <rect x="20" y="40" width="70" height="3" fill="#f8f9fa" opacity="0.6"/>
    
    <!-- Connection dots -->
    <circle cx="50" cy="60" r="3" fill="#4299e1" opacity="0.7"/>
    <circle cx="70" cy="60" r="3" fill="#4299e1" opacity="0.7"/>
    <circle cx="90" cy="60" r="3" fill="#4299e1" opacity="0.7"/>
  </g>
  
  <!-- Communication lines -->
  <path d="M 150 200 Q 200 150 250 200 Q 300 250 350 200" 
        stroke="#4299e1" stroke-width="2" fill="none" opacity="0.4" stroke-linecap="round"/>
  <path d="M 250 220 Q 300 270 350 220 Q 400 170 450 220" 
        stroke="#667eea" stroke-width="1.5" fill="none" opacity="0.3" stroke-linecap="round"/>
  
  <!-- Social media icons representation -->
  <g transform="translate(100, 280)">
    <!-- Twitter/X -->
    <circle cx="0" cy="0" r="15" fill="#4299e1" opacity="0.6"/>
    <path d="M -6 -2 L 6 2 M -6 2 L 6 -2" stroke="#f8f9fa" stroke-width="1.5" stroke-linecap="round"/>
  </g>
  
  <g transform="translate(150, 280)">
    <!-- LinkedIn -->
    <rect x="-12" y="-12" width="24" height="24" rx="4" fill="#667eea" opacity="0.6"/>
    <path d="M -6 -6 L 6 6 M -6 6 L 6 -6" stroke="#f8f9fa" stroke-width="1.5" stroke-linecap="round"/>
  </g>
  
  <g transform="translate(200, 280)">
    <!-- GitHub -->
    <circle cx="0" cy="0" r="15" fill="#2d3748" opacity="0.6"/>
    <path d="M -6 -2 L 6 2 M -6 2 L 6 -2" stroke="#f8f9fa" stroke-width="1.5" stroke-linecap="round"/>
  </g>
  
  <!-- Decorative elements -->
  <g transform="translate(80, 80)">
    <circle cx="0" cy="0" r="2" fill="#4299e1" opacity="0.6"/>
    <circle cx="0" cy="0" r="6" fill="none" stroke="#4299e1" stroke-width="1" opacity="0.3"/>
  </g>
  
  <g transform="translate(520, 180)">
    <circle cx="0" cy="0" r="1.5" fill="#667eea" opacity="0.7"/>
    <circle cx="0" cy="0" r="5" fill="none" stroke="#667eea" stroke-width="1" opacity="0.4"/>
  </g>
</svg> 