<svg width="24" height="24" viewBox="0 0 24 24" fill="none" xmlns="http://www.w3.org/2000/svg">
  <path d="M 12 2 C 6.48 2 2 6.48 2 12 C 2 16.42 4.87 20.17 8.84 21.5 C 9.34 21.58 9.5 21.27 9.5 21 C 9.5 20.77 9.5 20.14 9.5 19.31 C 6.73 19.91 6.14 17.97 6.14 17.97 C 5.68 16.81 5.03 16.5 5.03 16.5 C 4.12 15.88 5.1 15.9 5.1 15.9 C 6.1 15.97 6.63 16.93 6.63 16.93 C 7.5 18.45 8.97 18 9.54 17.76 C 9.63 17.11 9.89 16.67 10.17 16.42 C 7.95 16.17 5.62 15.31 5.62 11.5 C 5.62 10.39 6 9.5 6.65 8.79 C 6.55 8.54 6.2 7.5 6.75 6.15 C 6.75 6.15 7.59 5.88 9.5 7.17 C 10.31 6.95 11.15 6.84 12 6.84 C 12.85 6.84 13.69 6.95 14.5 7.17 C 16.41 5.88 17.25 6.15 17.25 6.15 C 17.8 7.5 17.45 8.54 17.35 8.79 C 18 9.5 18.38 10.39 18.38 11.5 C 18.38 15.32 16.04 16.16 13.81 16.41 C 14.17 16.72 14.5 17.33 14.5 18.26 C 14.5 19.6 14.5 20.68 14.5 21 C 14.5 21.27 14.66 21.59 15.17 21.5 C 19.14 20.16 22 16.42 22 12 C 22 6.48 17.52 2 12 2 Z" 
        fill="currentColor"/>
</svg> 