<svg width="24" height="24" viewBox="0 0 24 24" fill="none" xmlns="http://www.w3.org/2000/svg">
  <path d="M 16 8 C 17.1 8 18 8.9 18 10 V 16 H 21 V 10 C 21 7.2 18.8 5 16 5 C 14.1 5 12.6 6.1 12 7.5 V 5 H 9 V 16 H 12 V 10 C 12 8.9 12.9 8 14 8 C 15.1 8 16 8.9 16 10 V 16 H 19 V 10 C 19 7.2 16.8 5 14 5 C 12.1 5 10.6 6.1 10 7.5 V 5 H 7 V 16 H 10 V 10 C 10 8.9 10.9 8 12 8 Z" 
        fill="currentColor"/>
  <rect x="3" y="8" width="4" height="8" fill="currentColor"/>
  <circle cx="5" cy="4" r="2" fill="currentColor"/>
</svg> 